G75*
G70*
%OFA0B0*%
%FSLAX24Y24*%
%IPPOS*%
%LPD*%
%AMOC8*
5,1,8,0,0,1.08239X$1,22.5*
%
%ADD10R,0.0320X0.0950*%
%ADD11R,0.0330X0.0580*%
%ADD12R,0.0790X0.0710*%
%ADD13R,0.0710X0.0790*%
%ADD14R,0.0513X0.0671*%
%ADD15R,0.0830X0.0830*%
%ADD16C,0.0730*%
%ADD17R,0.0390X0.0430*%
D10*
X003287Y003115D03*
X003787Y003115D03*
X004287Y003115D03*
X004787Y003115D03*
X005287Y003115D03*
X005787Y003115D03*
X006287Y003115D03*
X006287Y005165D03*
X005787Y005165D03*
X005287Y005165D03*
X004787Y005165D03*
X004287Y005165D03*
X003787Y005165D03*
X003287Y005165D03*
D11*
X007387Y003490D03*
X007887Y003490D03*
X008387Y003490D03*
X008887Y003490D03*
D12*
X002597Y003040D03*
X002597Y004159D03*
X001587Y004730D03*
X001587Y005849D03*
X002887Y006870D03*
X003837Y006870D03*
X004737Y006470D03*
X004737Y007589D03*
X003837Y007989D03*
X002887Y007989D03*
X009157Y008449D03*
X009157Y007330D03*
X010137Y004879D03*
X010137Y003760D03*
D13*
X009297Y004590D03*
X009297Y005490D03*
X009297Y006390D03*
X008177Y006390D03*
X008177Y005490D03*
X008177Y004590D03*
D14*
X006290Y006641D03*
X005483Y006641D03*
X005483Y008118D03*
X006290Y008118D03*
D15*
X002507Y005690D03*
X010577Y005690D03*
D16*
X007837Y007560D03*
X004587Y001940D03*
X001337Y007570D03*
D17*
X006717Y005640D03*
X007477Y005640D03*
X007097Y006440D03*
M02*
