G75*
G70*
%OFA0B0*%
%FSLAX24Y24*%
%IPPOS*%
%LPD*%
%AMOC8*
5,1,8,0,0,1.08239X$1,22.5*
%
%ADD10C,0.0160*%
%ADD11C,0.0050*%
%ADD12C,0.0060*%
%ADD13C,0.0040*%
%ADD14C,0.0000*%
D10*
X000186Y005890D02*
X000193Y006170D01*
X000213Y006449D01*
X000248Y006727D01*
X000296Y007002D01*
X000357Y007275D01*
X000431Y007545D01*
X000519Y007811D01*
X000620Y008072D01*
X000733Y008327D01*
X000859Y008577D01*
X000997Y008821D01*
X001147Y009057D01*
X001308Y009286D01*
X001480Y009507D01*
X001663Y009719D01*
X001856Y009921D01*
X002058Y010114D01*
X002270Y010297D01*
X002491Y010469D01*
X002720Y010630D01*
X002956Y010780D01*
X003200Y010918D01*
X003450Y011044D01*
X003705Y011157D01*
X003966Y011258D01*
X004232Y011346D01*
X004502Y011420D01*
X004775Y011481D01*
X005050Y011529D01*
X005328Y011564D01*
X005607Y011584D01*
X005887Y011591D01*
X006167Y011584D01*
X006446Y011564D01*
X006724Y011529D01*
X006999Y011481D01*
X007272Y011420D01*
X007542Y011346D01*
X007808Y011258D01*
X008069Y011157D01*
X008324Y011044D01*
X008574Y010918D01*
X008818Y010780D01*
X009054Y010630D01*
X009283Y010469D01*
X009504Y010297D01*
X009716Y010114D01*
X009918Y009921D01*
X010111Y009719D01*
X010294Y009507D01*
X010466Y009286D01*
X010627Y009057D01*
X010777Y008821D01*
X010915Y008577D01*
X011041Y008327D01*
X011154Y008072D01*
X011255Y007811D01*
X011343Y007545D01*
X011417Y007275D01*
X011478Y007002D01*
X011526Y006727D01*
X011561Y006449D01*
X011581Y006170D01*
X011588Y005890D01*
X011581Y005610D01*
X011561Y005331D01*
X011526Y005053D01*
X011478Y004778D01*
X011417Y004505D01*
X011343Y004235D01*
X011255Y003969D01*
X011154Y003708D01*
X011041Y003453D01*
X010915Y003203D01*
X010777Y002959D01*
X010627Y002723D01*
X010466Y002494D01*
X010294Y002273D01*
X010111Y002061D01*
X009918Y001859D01*
X009716Y001666D01*
X009504Y001483D01*
X009283Y001311D01*
X009054Y001150D01*
X008818Y001000D01*
X008574Y000862D01*
X008324Y000736D01*
X008069Y000623D01*
X007808Y000522D01*
X007542Y000434D01*
X007272Y000360D01*
X006999Y000299D01*
X006724Y000251D01*
X006446Y000216D01*
X006167Y000196D01*
X005887Y000189D01*
X005607Y000196D01*
X005328Y000216D01*
X005050Y000251D01*
X004775Y000299D01*
X004502Y000360D01*
X004232Y000434D01*
X003966Y000522D01*
X003705Y000623D01*
X003450Y000736D01*
X003200Y000862D01*
X002956Y001000D01*
X002720Y001150D01*
X002491Y001311D01*
X002270Y001483D01*
X002058Y001666D01*
X001856Y001859D01*
X001663Y002061D01*
X001480Y002273D01*
X001308Y002494D01*
X001147Y002723D01*
X000997Y002959D01*
X000859Y003203D01*
X000733Y003453D01*
X000620Y003708D01*
X000519Y003969D01*
X000431Y004235D01*
X000357Y004505D01*
X000296Y004778D01*
X000248Y005053D01*
X000213Y005331D01*
X000193Y005610D01*
X000186Y005890D01*
D11*
X002461Y003975D02*
X003062Y003975D01*
X002987Y003900D02*
X002987Y004050D01*
X002912Y004125D01*
X002837Y004125D01*
X002762Y004050D01*
X002762Y003900D01*
X002687Y003825D01*
X002611Y003825D01*
X002536Y003900D01*
X002536Y004050D01*
X002611Y004125D01*
X002687Y004285D02*
X002536Y004435D01*
X002987Y004435D01*
X002987Y004285D02*
X002987Y004586D01*
X002987Y003900D02*
X002912Y003825D01*
X002912Y003665D02*
X002536Y003665D01*
X002536Y003365D02*
X002912Y003365D01*
X002987Y003440D01*
X002987Y003590D01*
X002912Y003665D01*
X006761Y004715D02*
X007061Y004715D01*
X006911Y004715D02*
X006911Y004265D01*
X007221Y004265D02*
X007522Y004265D01*
X007371Y004265D02*
X007371Y004715D01*
X007221Y004565D01*
D12*
X006467Y004845D02*
X006467Y003434D01*
X006527Y005890D02*
X006527Y006190D01*
X007667Y006190D01*
X007667Y005890D01*
X006527Y005890D01*
X003197Y003835D02*
X003199Y003864D01*
X003205Y003892D01*
X003214Y003919D01*
X003228Y003944D01*
X003244Y003968D01*
X003264Y003988D01*
X003286Y004007D01*
X003310Y004021D01*
X003337Y004033D01*
X003364Y004041D01*
X003393Y004045D01*
X003421Y004045D01*
X003450Y004041D01*
X003477Y004033D01*
X003504Y004021D01*
X003528Y004007D01*
X003550Y003988D01*
X003570Y003968D01*
X003586Y003944D01*
X003600Y003919D01*
X003609Y003892D01*
X003615Y003864D01*
X003617Y003835D01*
X003615Y003806D01*
X003609Y003778D01*
X003600Y003751D01*
X003586Y003726D01*
X003570Y003702D01*
X003550Y003682D01*
X003528Y003663D01*
X003504Y003649D01*
X003477Y003637D01*
X003450Y003629D01*
X003421Y003625D01*
X003393Y003625D01*
X003364Y003629D01*
X003337Y003637D01*
X003310Y003649D01*
X003286Y003663D01*
X003264Y003682D01*
X003244Y003702D01*
X003228Y003726D01*
X003214Y003751D01*
X003205Y003778D01*
X003199Y003806D01*
X003197Y003835D01*
X003107Y003434D02*
X003107Y004845D01*
D13*
X003066Y003479D02*
X003066Y003249D01*
X003527Y003249D01*
X003373Y003249D02*
X003373Y003479D01*
X003297Y003556D01*
X003143Y003556D01*
X003066Y003479D01*
X003220Y003709D02*
X003066Y003863D01*
X003527Y003863D01*
X003527Y004016D02*
X003527Y003709D01*
X003527Y003556D02*
X003373Y003402D01*
X001117Y004836D02*
X001117Y004990D01*
X001040Y005066D01*
X001117Y005220D02*
X001117Y005527D01*
X001117Y005373D02*
X000656Y005373D01*
X000810Y005220D01*
X000733Y005066D02*
X000656Y004990D01*
X000656Y004836D01*
X000733Y004760D01*
X001040Y004760D01*
X001117Y004836D01*
X001956Y006900D02*
X001956Y007130D01*
X002033Y007206D01*
X002187Y007206D01*
X002263Y007130D01*
X002263Y006900D01*
X002263Y007053D02*
X002417Y007206D01*
X002417Y007360D02*
X002110Y007667D01*
X002033Y007667D01*
X001956Y007590D01*
X001956Y007437D01*
X002033Y007360D01*
X002417Y007360D02*
X002417Y007667D01*
X002906Y007590D02*
X002906Y007437D01*
X002983Y007360D01*
X002983Y007206D02*
X003137Y007206D01*
X003213Y007130D01*
X003213Y006900D01*
X003213Y007053D02*
X003367Y007206D01*
X003290Y007360D02*
X003367Y007437D01*
X003367Y007590D01*
X003290Y007667D01*
X003213Y007667D01*
X003137Y007590D01*
X003137Y007513D01*
X003137Y007590D02*
X003060Y007667D01*
X002983Y007667D01*
X002906Y007590D01*
X002983Y007206D02*
X002906Y007130D01*
X002906Y006900D01*
X003367Y006900D01*
X002417Y006900D02*
X001956Y006900D01*
X005206Y006909D02*
X005206Y006679D01*
X005667Y006679D01*
X005513Y006679D02*
X005513Y006909D01*
X005437Y006986D01*
X005283Y006986D01*
X005206Y006909D01*
X005513Y006832D02*
X005667Y006986D01*
X005437Y007139D02*
X005437Y007446D01*
X005667Y007369D02*
X005206Y007369D01*
X005437Y007139D01*
X008207Y007013D02*
X008437Y007013D01*
X008514Y007090D01*
X008514Y007243D01*
X008437Y007320D01*
X008207Y007320D01*
X008207Y006860D01*
X008360Y007013D02*
X008514Y006860D01*
X008667Y006936D02*
X008744Y006860D01*
X008897Y006860D01*
X008974Y006936D01*
X008974Y007013D01*
X008897Y007090D01*
X008667Y007090D01*
X008667Y006936D01*
X008667Y007090D02*
X008821Y007243D01*
X008974Y007320D01*
X008687Y007436D02*
X008610Y007360D01*
X008226Y007360D01*
X008226Y007666D02*
X008610Y007666D01*
X008687Y007590D01*
X008687Y007436D01*
X008610Y007820D02*
X008687Y007897D01*
X008687Y008050D01*
X008610Y008127D01*
X008533Y008127D01*
X008457Y008050D01*
X008457Y007897D01*
X008380Y007820D01*
X008303Y007820D01*
X008226Y007897D01*
X008226Y008050D01*
X008303Y008127D01*
X008226Y008280D02*
X008457Y008280D01*
X008380Y008434D01*
X008380Y008510D01*
X008457Y008587D01*
X008610Y008587D01*
X008687Y008510D01*
X008687Y008357D01*
X008610Y008280D01*
X008763Y007973D02*
X008150Y007973D01*
X008226Y008280D02*
X008226Y008587D01*
X008283Y006420D02*
X008207Y006343D01*
X008207Y006036D01*
X008283Y005960D01*
X008437Y005960D01*
X008514Y006036D01*
X008667Y006036D02*
X008744Y005960D01*
X008897Y005960D01*
X008974Y006036D01*
X008974Y006113D01*
X008897Y006190D01*
X008821Y006190D01*
X008897Y006190D02*
X008974Y006266D01*
X008974Y006343D01*
X008897Y006420D01*
X008744Y006420D01*
X008667Y006343D01*
X008514Y006343D02*
X008437Y006420D01*
X008283Y006420D01*
X009206Y004557D02*
X009206Y004250D01*
X009437Y004250D01*
X009360Y004403D01*
X009360Y004480D01*
X009437Y004557D01*
X009590Y004557D01*
X009667Y004480D01*
X009667Y004327D01*
X009590Y004250D01*
X009667Y004096D02*
X009513Y003943D01*
X009513Y004020D02*
X009513Y003790D01*
X009667Y003790D02*
X009206Y003790D01*
X009206Y004020D01*
X009283Y004096D01*
X009437Y004096D01*
X009513Y004020D01*
X009153Y004043D02*
X009153Y003966D01*
X008846Y003660D01*
X009153Y003660D01*
X009153Y004043D02*
X009077Y004120D01*
X008923Y004120D01*
X008846Y004043D01*
X008693Y004043D02*
X008616Y004120D01*
X008463Y004120D01*
X008386Y004043D01*
X008386Y003736D01*
X008463Y003660D01*
X008616Y003660D01*
X008693Y003736D01*
D14*
X007512Y007560D02*
X007514Y007596D01*
X007520Y007631D01*
X007530Y007666D01*
X007543Y007699D01*
X007560Y007730D01*
X007581Y007760D01*
X007604Y007787D01*
X007630Y007811D01*
X007659Y007832D01*
X007690Y007850D01*
X007723Y007864D01*
X007757Y007875D01*
X007792Y007882D01*
X007828Y007885D01*
X007864Y007884D01*
X007899Y007879D01*
X007934Y007870D01*
X007968Y007858D01*
X007999Y007841D01*
X008029Y007822D01*
X008057Y007799D01*
X008082Y007773D01*
X008104Y007745D01*
X008123Y007715D01*
X008138Y007682D01*
X008150Y007648D01*
X008158Y007613D01*
X008162Y007578D01*
X008162Y007542D01*
X008158Y007507D01*
X008150Y007472D01*
X008138Y007438D01*
X008123Y007405D01*
X008104Y007375D01*
X008082Y007347D01*
X008057Y007321D01*
X008029Y007298D01*
X008000Y007279D01*
X007968Y007262D01*
X007934Y007250D01*
X007899Y007241D01*
X007864Y007236D01*
X007828Y007235D01*
X007792Y007238D01*
X007757Y007245D01*
X007723Y007256D01*
X007690Y007270D01*
X007659Y007288D01*
X007630Y007309D01*
X007604Y007333D01*
X007581Y007360D01*
X007560Y007390D01*
X007543Y007421D01*
X007530Y007454D01*
X007520Y007489D01*
X007514Y007524D01*
X007512Y007560D01*
X004262Y001940D02*
X004264Y001976D01*
X004270Y002011D01*
X004280Y002046D01*
X004293Y002079D01*
X004310Y002110D01*
X004331Y002140D01*
X004354Y002167D01*
X004380Y002191D01*
X004409Y002212D01*
X004440Y002230D01*
X004473Y002244D01*
X004507Y002255D01*
X004542Y002262D01*
X004578Y002265D01*
X004614Y002264D01*
X004649Y002259D01*
X004684Y002250D01*
X004718Y002238D01*
X004749Y002221D01*
X004779Y002202D01*
X004807Y002179D01*
X004832Y002153D01*
X004854Y002125D01*
X004873Y002095D01*
X004888Y002062D01*
X004900Y002028D01*
X004908Y001993D01*
X004912Y001958D01*
X004912Y001922D01*
X004908Y001887D01*
X004900Y001852D01*
X004888Y001818D01*
X004873Y001785D01*
X004854Y001755D01*
X004832Y001727D01*
X004807Y001701D01*
X004779Y001678D01*
X004750Y001659D01*
X004718Y001642D01*
X004684Y001630D01*
X004649Y001621D01*
X004614Y001616D01*
X004578Y001615D01*
X004542Y001618D01*
X004507Y001625D01*
X004473Y001636D01*
X004440Y001650D01*
X004409Y001668D01*
X004380Y001689D01*
X004354Y001713D01*
X004331Y001740D01*
X004310Y001770D01*
X004293Y001801D01*
X004280Y001834D01*
X004270Y001869D01*
X004264Y001904D01*
X004262Y001940D01*
X001012Y007570D02*
X001014Y007606D01*
X001020Y007641D01*
X001030Y007676D01*
X001043Y007709D01*
X001060Y007740D01*
X001081Y007770D01*
X001104Y007797D01*
X001130Y007821D01*
X001159Y007842D01*
X001190Y007860D01*
X001223Y007874D01*
X001257Y007885D01*
X001292Y007892D01*
X001328Y007895D01*
X001364Y007894D01*
X001399Y007889D01*
X001434Y007880D01*
X001468Y007868D01*
X001499Y007851D01*
X001529Y007832D01*
X001557Y007809D01*
X001582Y007783D01*
X001604Y007755D01*
X001623Y007725D01*
X001638Y007692D01*
X001650Y007658D01*
X001658Y007623D01*
X001662Y007588D01*
X001662Y007552D01*
X001658Y007517D01*
X001650Y007482D01*
X001638Y007448D01*
X001623Y007415D01*
X001604Y007385D01*
X001582Y007357D01*
X001557Y007331D01*
X001529Y007308D01*
X001500Y007289D01*
X001468Y007272D01*
X001434Y007260D01*
X001399Y007251D01*
X001364Y007246D01*
X001328Y007245D01*
X001292Y007248D01*
X001257Y007255D01*
X001223Y007266D01*
X001190Y007280D01*
X001159Y007298D01*
X001130Y007319D01*
X001104Y007343D01*
X001081Y007370D01*
X001060Y007400D01*
X001043Y007431D01*
X001030Y007464D01*
X001020Y007499D01*
X001014Y007534D01*
X001012Y007570D01*
M02*
